<svg xmlns="http://www.w3.org/2000/svg" viewBox="0 0 16.51 24"><title>presas_icon</title><g id="Layer_2" data-name="Layer 2"><g id="Layer_1-2" data-name="Layer 1"><path d="M12.31,12.28a8.73,8.73,0,0,1-3.48-.49A7.36,7.36,0,0,1,7,10.64a1.86,1.86,0,0,1-.35-2.29A2.65,2.65,0,0,1,10,6.8a2.78,2.78,0,0,1,.42.22c1,.63,1,.63,1.9-.1a3,3,0,0,1,4.16,2.13,2.18,2.18,0,0,1-.8,2,5.32,5.32,0,0,1-2.76,1.1Zm.18-1.52a4.21,4.21,0,0,0,2.12-.64A.85.85,0,0,0,15,9.06a1.46,1.46,0,0,0-2.17-.71c-.2.15-.42.27-.64.41a2.5,2.5,0,0,1-2.46-.45C9.12,7.84,8.54,8,8,8.78c-.33.51-.21.9.5,1.3A6.18,6.18,0,0,0,12.49,10.76Z" fill="#fff"/><path d="M12.31,24a8.56,8.56,0,0,1-3.48-.5A6.83,6.83,0,0,1,7,22.35a1.85,1.85,0,0,1-.35-2.29A2.66,2.66,0,0,1,10,18.51a2.13,2.13,0,0,1,.42.23c1,.63,1,.63,1.9-.1a3,3,0,0,1,4.16,2.12,2.17,2.17,0,0,1-.8,2,5.32,5.32,0,0,1-2.76,1.1Zm.18-1.52a4.22,4.22,0,0,0,2.12-.65.84.84,0,0,0,.41-1,1.46,1.46,0,0,0-2.17-.71,6.89,6.89,0,0,1-.64.4A2.47,2.47,0,0,1,9.75,20c-.63-.47-1.21-.29-1.72.47-.33.51-.21.9.5,1.3A6.13,6.13,0,0,0,12.49,22.48Z" fill="#fff"/><path d="M3.21,6.64a12.49,12.49,0,0,1-2-.52A2,2,0,0,1,.07,3.68,2.56,2.56,0,0,1,2.75,1.44a3.78,3.78,0,0,1,.74.17,1,1,0,0,0,1.27-.46A2.59,2.59,0,0,1,7.7.08,2.58,2.58,0,0,1,9.8,2.13,2.16,2.16,0,0,1,9.27,4a7,7,0,0,1-4,2.31C4.67,6.47,4,6.51,3.21,6.64Zm.15-1.46A7.82,7.82,0,0,0,7.3,3.89a4.49,4.49,0,0,0,.87-.82.82.82,0,0,0-.06-1.2A1.45,1.45,0,0,0,5.94,2,2.32,2.32,0,0,1,3.15,3c-.94-.27-1.35,0-1.65.9-.15.51,0,.81.47,1A12.22,12.22,0,0,0,3.36,5.18Z" fill="#fff"/><path d="M3.21,19.31a13.57,13.57,0,0,1-2-.51A2,2,0,0,1,.07,16.36a2.57,2.57,0,0,1,2.68-2.25,3.78,3.78,0,0,1,.74.17.94.94,0,0,0,1.27-.45A2.57,2.57,0,0,1,7.7,12.76a2.56,2.56,0,0,1,2.1,2.05,2.16,2.16,0,0,1-.53,1.87,7,7,0,0,1-4,2.31C4.67,19.14,4,19.19,3.21,19.31Zm.15-1.46A7.63,7.63,0,0,0,7.3,16.56a4.76,4.76,0,0,0,.87-.81.83.83,0,0,0-.06-1.21,1.45,1.45,0,0,0-2.17.13,2.33,2.33,0,0,1-2.79,1c-.94-.27-1.35-.05-1.65.91-.15.51,0,.81.47,1A12.21,12.21,0,0,0,3.36,17.85Z" fill="#fff"/></g></g></svg>